# xmcd
#
# Track frame offsets: 
#        150
#        17880
#        32533
#        48552
#        61807
#        74877
#        94775
#        117552
#        136257
#        155745
#        170742
#        186777
#        205870
#        221146
#        233042
#        251442
#        267981
#        286707
#        304602
#        317351
#
# Disc length: 4485 seconds
#
# Revision: 0
# Processed by: cddbd v1.5.2PL0 Copyright (c) Steve Scherf et al.
# Submitted via: ExactAudioCopy v0.99pb5
#
DISCID=27118314
DTITLE=Various Artist - Australia's Favourite Country Love Songs
DYEAR=2006
DGENRE=Country
TTITLE0=Lee Kernaghan - Goondiwindi Moon
TTITLE1=Sara Storer - Star
TTITLE2=Troy Cassar-Daley - Little Things
TTITLE3=Beccy Cole - Ordinary Heart
TTITLE4=Adam Harvey - Call It Love
TTITLE5=Tania Kernaghan - Mary Called Him Mister
TTITLE6=James Blundell - Rain on a Tim Roof
TTITLE7=Travis Sinclair and Camille Te Nahu - Truly, Madly, Deeply
TTITLE8=Samantha McClymont - Heart of a Man
TTITLE9=John Williamson - Power Over Me
TTITLE10=Felicity Urquhart - Throw Your Arms Around Me
TTITLE11=Jake Nicholai - Suddenly I
TTITLE12=Jonah's Road - Missing You
TTITLE13=Jimmy Little (feat. Melinda Schneider) - Reach Out
TTITLE14=Gina Jeffreys - Angel
TTITLE15=Jedd Hughes - High Lonesome
TTITLE16=Medicine Wheel - Telephone Lines
TTITLE17=Travis Collins - A Fool Like Me
TTITLE18=Karl Broadie - Not Long For Springtime
TTITLE19=Warren H Williams - Mum, Mums
EXTD=
EXTT0=
EXTT1=
EXTT2=
EXTT3=
EXTT4=
EXTT5=
EXTT6=
EXTT7=
EXTT8=
EXTT9=
EXTT10=
EXTT11=
EXTT12=
EXTT13=
EXTT14=
EXTT15=
EXTT16=
EXTT17=
EXTT18=
EXTT19=
PLAYORDER=
